# xmcd
#
# Track frame offsets: 
#        150
#        12843
#        25760
#        42483
#        61975
#        81100
#        98320
#        112717
#        129040
#        145070
#        165413
#        185998
#        206135
#        225550
#        241430
#        260063
#        278205
#        290310
#
# Disc length: 4138 seconds
#
# Revision: 4
# Processed by: cddbd v1.5.2PL0 Copyright (c) Steve Scherf et al.
# Submitted via: ExactAudioCopy v1.0b6
#
DISCID=ee102812
DTITLE=Various Artist - Good Days 5 ～結婚しようよ／翼をください～ DRF-9405
DYEAR=2003
DGENRE=Folk
TTITLE0=よしだたくろう - 結婚しようよ
TTITLE1=よしだたくろう - 旅の宿
TTITLE2=村下孝蔵 - 初恋
TTITLE3=五輪真弓 - 少女
TTITLE4=山本コウタロー＆ウィークエンド - 岬めぐり
TTITLE5=ハイ・ファイ・セット - 冷たい雨
TTITLE6=ガロ - 学生街の喫茶店
TTITLE7=ふきのとう - 白い冬
TTITLE8=紙ふうせん - 冬が来る前に
TTITLE9=猫 - 地下鉄にのって
TTITLE10=バンバン - 「いちご白書」をもう一度
TTITLE11=ばんばひろふみ - SACHIKO
TTITLE12=岸田智史 - きみの朝
TTITLE13=ブレッド＆バター - あの頃のまま
TTITLE14=五輪真弓 - 恋人よ
TTITLE15=ハイ・ファイ・セット - 卒業写真
TTITLE16=赤い鳥 - 翼をください
TTITLE17=河島英五 - 酒と泪と男と女
EXTD=YEAR: 2003
EXTT0=
EXTT1=
EXTT2=
EXTT3=
EXTT4=
EXTT5=
EXTT6=
EXTT7=
EXTT8=
EXTT9=
EXTT10=
EXTT11=
EXTT12=
EXTT13=
EXTT14=
EXTT15=
EXTT16=
EXTT17=
PLAYORDER=
